<?xml version="1.0" encoding="UTF-8" standalone="no"?>
<!-- Created with Inkscape (http://www.inkscape.org/) -->

<svg
   width="194.72156mm"
   height="194.72159mm"
   viewBox="20 20 154.72156 154.72159"
   version="1.1"
   id="svg1"
   xml:space="preserve"
   inkscape:version="1.4.4 (dcaf3e7, 2026-05-05)"
   sodipodi:docname="AppartementsAzurIcon.svg"
   xmlns:inkscape="http://www.inkscape.org/namespaces/inkscape"
   xmlns:sodipodi="http://sodipodi.sourceforge.net/DTD/sodipodi-0.dtd"
   xmlns="http://www.w3.org/2000/svg"
   xmlns:svg="http://www.w3.org/2000/svg"><sodipodi:namedview
     id="namedview1"
     pagecolor="#ffffff"
     bordercolor="#000000"
     borderopacity="0.25"
     inkscape:showpageshadow="2"
     inkscape:pageopacity="0.0"
     inkscape:pagecheckerboard="0"
     inkscape:deskcolor="#d1d1d1"
     inkscape:document-units="mm"
     inkscape:zoom="0.83"
     inkscape:cx="285.54217"
     inkscape:cy="328.31325"
     inkscape:window-width="2560"
     inkscape:window-height="1369"
     inkscape:window-x="-8"
     inkscape:window-y="-8"
     inkscape:window-maximized="1"
     inkscape:current-layer="layer1"><inkscape:page
       x="0"
       y="0"
       width="194.72156"
       height="194.72159"
       id="page2"
       margin="0"
       bleed="0" /></sodipodi:namedview><defs
     id="defs1"><clipPath id="roundedClip"><rect x="20" y="20" width="154.72156" height="154.72159" rx="15"/></clipPath></defs><g clip-path="url(#roundedClip)"><rect width="194.72156" height="194.72159" rx="15" fill="white"/><g
     inkscape:label="Layer 1"
     inkscape:groupmode="layer"
     id="layer1"
     transform="translate(-11.223323,-17.330834)"><path
       style="fill:#1c436e;fill-opacity:1"
       d="M 11.223324,114.69162 V 17.330833 h 97.360776 97.36079 v 97.360787 97.36079 H 108.5841 11.223324 Z m 107.443916,24.37571 c 0.54858,-0.26805 1.3404,-0.87702 1.7596,-1.35325 1.31306,-1.49172 1.40088,-2.02092 1.4954,-9.0113 l 0.0834,-6.16874 h -1.06053 -1.06053 l -0.0553,6.16874 c -0.0552,6.14844 -0.0569,6.17184 -0.53354,7.11518 -0.26301,0.52055 -0.69338,1.101 -0.95639,1.28989 -0.71628,0.51443 -2.21189,0.73242 -3.39496,0.49483 -1.16714,-0.2344 -1.82887,-0.79831 -2.41932,-2.06169 -0.37755,-0.80786 -0.40609,-1.234 -0.46433,-6.93385 l -0.0621,-6.0731 h -0.95372 -0.95372 l 0.0594,6.45565 c 0.0585,6.36085 0.066,6.4683 0.51161,7.31641 1.01408,1.93019 1.83786,2.63625 3.67582,3.15052 1.37987,0.3861 3.04968,0.23595 4.32922,-0.38929 z m 9.76606,-3.38289 0.0519,-3.77775 h 1.40061 1.4006 l 2.08941,3.77775 2.0894,3.77776 1.09663,0.0544 c 0.60315,0.0299 1.09663,-0.0163 1.09663,-0.10265 0,-0.0864 -0.99453,-1.86352 -2.21007,-3.94926 -1.21555,-2.08574 -2.18389,-3.80869 -2.15189,-3.82879 0.032,-0.0201 0.41653,-0.19227 0.85449,-0.3826 1.63486,-0.71048 2.55407,-2.18106 2.54688,-4.07457 -0.005,-1.39038 -0.46348,-2.42197 -1.48473,-3.34272 -1.17051,-1.05532 -2.25373,-1.30193 -5.71873,-1.30193 h -2.9301 v 8.52238 8.52238 l 0.90857,-0.0583 0.90857,-0.0583 z m 0.0438,-8.55971 v -2.86918 l 1.96061,0.004 c 2.3034,0.005 3.34324,0.36364 3.97562,1.37145 0.56029,0.89292 0.45183,2.61523 -0.20989,3.33271 -0.75861,0.82254 -1.50621,1.03 -3.71177,1.03 h -2.01457 z m -48.156156,11.18979 c 0.18879,-0.52601 0.47797,-1.32221 0.64263,-1.76932 l 0.29937,-0.81294 h 3.70122 c 3.67561,0 3.70205,0.003 3.81996,0.43038 0.0653,0.23671 0.33806,1.05442 0.60613,1.81715 l 0.4874,1.38677 h 1.05309 c 0.9258,0 1.0371,-0.0405 0.92084,-0.33474 -0.0727,-0.18411 -0.41646,-1.10942 -0.76383,-2.05625 -0.34736,-0.94682 -1.19286,-3.22782 -1.87889,-5.06888 -0.68602,-1.84105 -1.56429,-4.20813 -1.9517,-5.26016 -1.67661,-4.5529 -1.42974,-4.11249 -2.30521,-4.11249 h -0.77634 l -0.82204,2.12337 c -0.45213,1.16785 -1.10765,2.91088 -1.45672,3.87339 -0.54364,1.49899 -3.26365,8.70215 -3.89669,10.31925 l -0.20964,0.53553 1.09358,-0.0573 1.09359,-0.0573 z m 1.76035,-4.82978 c 0.0695,-0.28931 0.58604,-1.77411 1.14788,-3.29955 0.56185,-1.52545 1.12725,-3.11784 1.25645,-3.53866 0.19994,-0.65123 0.57125,-1.3259 0.57125,-1.03798 0,0.0498 0.64557,1.93143 1.43459,4.18138 0.78902,2.24994 1.43459,4.12006 1.43459,4.15582 0,0.0358 -1.3435,0.065 -2.98555,0.065 h -2.98556 z m 24.781336,5.02106 v -0.86075 h -5.26016 c -2.893091,0 -5.260156,-0.0522 -5.260156,-0.11602 0,-0.0638 0.88227,-1.23799 1.9606,-2.60929 1.078325,-1.3713 2.230126,-2.84693 2.559546,-3.27918 0.32942,-0.43224 1.81263,-2.33526 3.29602,-4.22891 2.36866,-3.02377 2.69751,-3.53036 2.70061,-4.16031 l 0.004,-0.7173 h -6.3122 -6.312186 v 0.76512 c 0,0.48245 0.0883,0.76658 0.2391,0.76908 0.1315,0.002 2.36946,0.005 4.973235,0.006 2.603781,10e-4 4.734151,0.0759 4.734151,0.16626 0,0.0904 -0.75316,1.13027 -1.67369,2.31094 -0.92053,1.18066 -1.84584,2.37701 -2.05625,2.65856 -0.912541,1.22107 -5.767926,7.43991 -6.254936,8.01139 -0.39074,0.45851 -0.53544,0.83328 -0.53544,1.38677 v 0.75846 h 6.599106 6.59911 z M 88.499854,115.04372 v -2.47615 l 0.97594,0.0578 0.97593,0.0578 1.35622,2.4388 1.35622,2.4388 h 0.7283 c 0.40057,0 0.72831,-0.055 0.72831,-0.1223 0,-0.0673 -0.25823,-0.54198 -0.57384,-1.05491 -0.31561,-0.51293 -0.57383,-0.96619 -0.57383,-1.00724 0,-0.041 -0.38951,-0.70641 -0.86558,-1.47857 -0.93736,-1.52034 -0.94701,-1.43674 0.24167,-2.09374 1.1498,-0.63551 1.55124,-2.64792 0.7962,-3.99133 -0.66291,-1.17949 -1.66149,-1.53734 -4.2899,-1.53734 h -2.19459 v 5.62941 5.62941 l 0.43038,0.0696 c 0.87646,0.14183 0.90857,0.0513 0.90857,-2.56012 z m 0.19128,-5.7079 v -1.91278 h 1.25281 c 1.99629,0 2.76404,0.57622 2.76404,2.07448 0,0.61461 -0.11302,0.85579 -0.58851,1.25589 -0.51747,0.43542 -0.75991,0.4952 -2.00842,0.4952 h -1.41992 z m 78.336486,8.05672 c 1.04446,-0.47444 1.75811,-1.36866 1.91217,-2.39602 0.26088,-1.73965 -0.4358,-2.66641 -2.95466,-3.93043 -2.52952,-1.26937 -3.01369,-2.05167 -2.00888,-3.24582 0.39948,-0.47475 0.64164,-0.58851 1.25281,-0.58851 0.84907,0 1.77376,0.40674 2.05103,0.90218 0.16269,0.29072 0.24052,0.29798 0.67898,0.0633 0.61919,-0.33138 0.61697,-0.40786 -0.0308,-1.06184 -2.03375,-2.05324 -5.60156,-0.98453 -5.64199,1.69003 -0.0214,1.41526 0.4719,2.00547 2.54203,3.04145 0.99485,0.49787 2.04553,1.16631 2.33484,1.48543 0.73021,0.80544 0.7177,1.75088 -0.0331,2.50168 -0.49029,0.49028 -0.69635,0.55903 -1.67369,0.5584 -1.41027,-9e-4 -2.22827,-0.46159 -2.54987,-1.43603 -0.19233,-0.58276 -0.3007,-0.68266 -0.64138,-0.59125 -0.22546,0.0605 -0.4745,0.11117 -0.5534,0.1126 -0.24042,0.004 -0.16034,0.75407 0.14326,1.34118 0.83082,1.60662 3.37421,2.37054 5.17264,1.55363 z m -118.622286,-1.07505 0.4058,-1.14767 h 2.47499 2.475 l 0.3824,1.19549 0.38241,1.19549 h 0.74875 c 0.51973,0 0.72108,-0.0731 0.65828,-0.2391 -0.0498,-0.1315 -0.58102,-1.57326 -1.1806,-3.20391 -1.64139,-4.46401 -2.82973,-7.53053 -3.01021,-7.76785 -0.0888,-0.11678 -0.35601,-0.17515 -0.59377,-0.1297 -0.3414,0.0653 -0.55717,0.41151 -1.02632,1.64693 -3.00387,7.91027 -3.51221,9.29133 -3.51221,9.54198 0,0.0961 0.31268,0.14803 0.69485,0.11538 0.66206,-0.0566 0.71398,-0.11351 1.10063,-1.20704 z m 0.88242,-2.46369 c 0,-0.04 0.3893,-1.17011 0.8651,-2.51137 0.80156,-2.25955 1.21893,-3.24994 1.23315,-2.9262 0.003,0.0728 0.43146,1.34246 0.9517,2.82136 l 0.94589,2.68892 h -1.99792 c -1.09886,0 -1.99792,-0.0327 -1.99792,-0.0727 z m 10.28851,1.17256 -0.026,-2.53444 1.32442,-0.049 c 2.03339,-0.0753 2.50323,-0.20276 3.21269,-0.87186 0.82637,-0.77937 1.17246,-1.93379 0.89199,-2.97536 -0.47465,-1.76272 -1.53374,-2.31062 -4.56125,-2.35968 l -2.04458,-0.0331 -0.0507,5.67897 -0.0507,5.67896 h 0.66508 0.66508 z m 0.005,-5.70861 -0.0605,-1.93086 1.57377,0.0659 c 1.39721,0.0585 1.63005,0.12218 2.07537,0.56757 0.35152,0.35156 0.50161,0.70339 0.50161,1.17583 0,1.58691 -0.61103,2.05243 -2.69396,2.05243 h -1.33574 z m 9.21649,5.66079 v -2.58226 l 1.57805,-0.004 c 2.0987,-0.006 2.99488,-0.3996 3.5589,-1.56473 0.63989,-1.32183 0.49328,-2.58222 -0.41555,-3.57242 -0.6955,-0.75777 -1.46854,-0.96279 -3.7898,-1.00507 l -2.17491,-0.0396 -0.0507,5.67527 -0.0507,5.67528 h 0.67232 0.67232 z m 0,-5.62309 v -1.93241 h 1.34845 c 1.5844,0 2.32354,0.31512 2.66334,1.13546 0.3045,0.73512 0.12013,1.76153 -0.40119,2.23347 -0.30788,0.27873 -0.76475,0.37637 -2.00468,0.42845 l -1.60592,0.0674 z m 8.52183,7.20114 c 0.18018,-0.55232 0.41283,-1.11181 0.51699,-1.24331 0.1331,-0.16803 0.88798,-0.2391 2.53972,-0.2391 h 2.35032 l 0.4459,1.24331 c 0.43882,1.22355 0.45707,1.24331 1.14828,1.24331 h 0.70238 l -0.63549,-1.76933 c -0.34952,-0.97313 -1.03992,-2.84526 -1.53423,-4.1603 -0.49431,-1.31504 -1.14005,-3.03655 -1.43498,-3.82558 -0.49514,-1.32464 -0.58152,-1.43918 -1.12704,-1.49452 -0.32494,-0.033 -0.59081,-0.0244 -0.59081,0.019 0,0.0685 -3.74589,9.99164 -4.11313,10.89602 -0.11608,0.28588 -0.0235,0.33474 0.63428,0.33474 0.76002,0 0.77454,-0.0133 1.09781,-1.00421 z m 1.04209,-2.80495 c 0,-0.0962 0.30127,-0.96432 0.66948,-1.9292 0.36821,-0.96487 0.66947,-1.83578 0.66947,-1.93533 0,-0.0996 0.13736,-0.50104 0.30523,-0.89217 l 0.30523,-0.71115 0.84188,2.35543 c 0.46303,1.29548 0.8945,2.56509 0.95882,2.82136 l 0.11694,0.46593 h -1.93352 c -1.06344,0 -1.93353,-0.0787 -1.93353,-0.17487 z m 22.615566,-1.30754 0.0509,-5.1167 1.9606,-0.0545 c 1.9343,-0.0538 1.96061,-0.0608 1.96061,-0.51975 0,-0.4606 -0.0205,-0.46578 -2.05624,-0.51933 -1.13094,-0.0298 -3.196741,-0.0278 -4.590686,0.004 l -2.53444,0.0585 v 0.46757 c 0,0.46472 0.0116,0.46756 1.91279,0.46756 h 1.912785 v 5.16452 5.16452 h 0.666341 0.66635 z m 13.41992,4.95862 c 0.0537,-0.087 0.0488,-0.34517 -0.011,-0.57384 -0.10567,-0.40409 -0.19127,-0.41575 -3.05123,-0.41575 h -2.94251 v -2.00843 -2.00842 h 2.59497 2.59497 l -0.0605,-0.52468 -0.0605,-0.52468 -2.53439,-10e-4 -2.53439,-0.001 -5e-5,-1.96061 -6e-5,-1.9606 h 2.96482 2.96482 v -0.57384 -0.57383 l -2.96482,-0.0174 c -1.63065,-0.01 -3.24456,-0.0252 -3.58647,-0.0349 l -0.62166,-0.0174 -0.0507,5.67756 -0.0507,5.67756 h 3.62585 c 1.99422,0 3.66982,-0.0711 3.72355,-0.15808 z m 3.94862,-4.76734 0.007,-4.92542 1.06256,2.86917 c 0.58441,1.57805 1.30556,3.55778 1.60255,4.39941 l 0.53999,1.53023 h 0.81505 0.81505 l 0.71295,-2.00843 c 0.39211,-1.10463 1.10557,-3.04133 1.58546,-4.30376 l 0.87252,-2.29535 0.007,4.82979 0.007,4.82978 h 0.76511 0.76512 v -5.62501 -5.62502 l -1.07953,-0.0655 -1.07953,-0.0655 -0.32651,0.76511 c -0.17958,0.42081 -0.92037,2.42081 -1.64619,4.44444 -0.72583,2.02363 -1.36595,3.68058 -1.4225,3.68212 -0.0566,0.002 -0.43648,-0.96557 -0.84429,-2.1491 -0.40781,-1.18354 -1.10721,-3.14175 -1.55422,-4.35159 l -0.81275,-2.1997 -1.06868,-0.0574 -1.06868,-0.0574 v 5.65227 5.65226 h 0.66947 0.66948 z m 20.26864,4.35159 v -0.57384 h -3.06046 -3.06046 v -2.00843 -2.00842 h 2.6779 2.6779 v -0.46531 c 0,-0.61104 -0.25463,-0.67184 -2.77354,-0.66218 -1.15723,0.004 -2.21166,0.002 -2.34316,-0.006 -0.17435,-0.0103 -0.2391,-0.53076 -0.2391,-1.92205 v -1.90793 l 3.01264,-0.0527 3.01264,-0.0527 0.0605,-0.52602 0.0605,-0.52601 h -3.74264 -3.74264 v 5.64271 5.64272 h 3.72993 3.72994 z m 3.8701,-4.25595 0.0511,-4.82979 1.07522,2.19971 c 0.59138,1.20983 1.65222,3.38324 2.35743,4.82978 l 1.28221,2.63008 h 0.94212 0.94213 v -5.64272 -5.64271 h -0.66948 -0.66947 l -0.005,4.82978 -0.005,4.82978 -1.61071,-3.34737 c -0.8859,-1.84106 -1.94092,-3.99294 -2.3445,-4.78197 l -0.73378,-1.43458 -0.99772,-0.0578 -0.99772,-0.0578 v 5.65272 5.65271 h 0.66619 0.66619 z m 14.06539,-0.38256 0.0509,-5.1167 h 1.90966 c 1.90945,0 1.90966,-5e-5 1.90966,-0.4782 v -0.47819 l -1.9606,-0.005 c -1.07834,-0.003 -3.10447,-0.0136 -4.50253,-0.0244 -1.39805,-0.0108 -2.57818,0.0166 -2.62249,0.061 -0.0443,0.0443 -0.0317,0.26748 0.028,0.49592 0.10067,0.38497 0.24347,0.41933 1.95302,0.46984 l 1.8444,0.0545 0.051,5.12858 0.051,5.12859 0.61851,-0.0597 0.61851,-0.0597 z M 98.829909,86.382393 c 0,-0.07681 -3.826909,2.104064 -3.826909,2.104064 -0.0903,3.10174 3.34e-4,6.414129 3.34e-4,9.659543 l 3.826666,2.7e-5 c 0,-3.263429 -9.1e-5,-8.169026 -9.1e-5,-11.763634 z m 8.608211,-8.224978 c -0.0245,-0.056 -5.41612,3.215191 -5.41612,3.215191 0,2.087684 -0.042,16.731555 -1e-4,16.773394 1.82251,0 3.60827,2.1e-5 5.4161,2.1e-5 0,-6.568666 7e-5,-13.19682 7e-5,-19.988606 z m 7.20079,6.182329 c 0,0 -3.98808,0.12135 -3.98808,0.0573 0,2.303236 1.7e-4,11.740019 1.7e-4,13.748956 1.35245,0.04954 2.63377,0.0362 3.988,0 0,-4.589772 -9e-5,-9.285991 -9e-5,-13.806256 z m 6.95213,3.559494 -3.92121,0.10902 C 117.76863,91.329372 117.67,98.146 117.67,98.146 h 3.921 z"
       id="path1"
       sodipodi:nodetypes="cccccccccsssccccssssccccscsssccccccssssscsscccccccccsssccsscssscscsssscssscccsssssssscsccsssssccccscssssssccccccccccssssssssccccccccssssccssssssssssssssscsssscccccscssccscssscscssscccsscccccccccsssscccccsssccccccccssscccssscsscssscssssssssscsscsscccscccsscccccccssccccccccccccccccccccsccccsscccsscccccccccsscssccccccccccccccccsccsccccccccccccccsscccccccccssccccccccccssccsccsccccccssccscsccscccsccccscc" /><path
       style="fill:#9ac8ea;fill-opacity:1;stroke-width:0.526316"
       d="m 359.28292,358.01779 c -0.19633,-7.02442 -0.19778,-15.20065 -0.003,-18.16939 l 0.35373,-5.39771 4.5254,-2.54656 c 2.48896,-1.40061 5.53197,-3.05814 6.76223,-3.68341 l 2.23684,-1.13685 v 21.8528 21.8528 h -6.759 -6.75901 z"
       id="path2"
       transform="scale(0.26458333)" /><path
       style="fill:#9ac8ea;fill-opacity:1;stroke-width:0.526316"
       d="m 385.78947,339.28151 v -31.50797 l 8.81579,-5.26232 c 4.84869,-2.89428 9.34869,-5.53981 10,-5.87897 l 1.18421,-0.61665 v 37.38693 37.38694 h -10 -10 z"
       id="path3"
       transform="scale(0.26458333)" /><path
       style="fill:#9ac8ea;fill-opacity:1;stroke-width:0.526316"
       d="m 418.42105,345 v -25.78947 h 7.36842 7.36842 V 345 370.78947 h -7.36842 -7.36842 z"
       id="path4"
       transform="scale(0.26458333)" /><path
       style="fill:#9ac8ea;fill-opacity:1;stroke:#000000;stroke-width:0.120945;stroke-dasharray:none;stroke-opacity:1"
       d="m 444.78443,370.44621 c 0.11954,-0.69471 0.21052,-27.20319 0.11171,-32.5489 -0.0522,-2.82396 -0.0881,-5.14969 -0.0799,-5.16829 0.02,-0.045 11.86594,-0.3901 13.46614,-0.39232 l 1.25305,-0.002 v 19.25428 19.25428 h -7.40969 -7.40969 z"
       id="path5"
       transform="scale(0.26458333)" /><path
       style="fill:#9ac8ea;fill-opacity:1;stroke:#000000;stroke-width:0.0147854;stroke-dasharray:none;stroke-opacity:1"
       d="m 418.45966,344.98778 v -25.7335 h 7.33496 7.33496 v 25.7335 25.73349 h -7.33496 -7.33496 z"
       id="path6"
       transform="scale(0.26458333)" /><path
       style="fill:#9ac8ea;fill-opacity:1;stroke:#000000;stroke-width:0.0104443;stroke-dasharray:none;stroke-opacity:1"
       d="m 385.85912,339.27188 0.0217,-31.49669 3.58376,-2.14116 c 8.5558,-5.11176 14.95618,-8.87813 15.86788,-9.33763 l 0.45337,-0.2285 v 37.35033 37.35034 h -9.97421 -9.97421 z"
       id="path8"
       transform="scale(0.26458333)" /><path
       style="fill:#9ac8ea;fill-opacity:1;stroke:#000000;stroke-width:0.0104443;stroke-dasharray:none;stroke-opacity:1"
       d="m 385.92401,339.25069 v -31.43152 l 4.6848,-2.79666 c 7.25705,-4.3322 12.93274,-7.67376 14.59413,-8.59229 l 0.49654,-0.27453 v 37.26326 37.26326 h -9.88774 -9.88773 z"
       id="path9"
       transform="scale(0.26458333)" /><path
       style="fill:#9ac8ea;fill-opacity:1;stroke:#000000;stroke-width:0.0104443;stroke-dasharray:none;stroke-opacity:1"
       d="m 359.66964,370.40155 c -0.001,-0.20185 -0.0778,-2.93177 -0.17027,-6.06649 -0.29328,-9.94594 -0.38679,-17.1618 -0.27475,-21.20034 0.11497,-4.14437 0.39717,-8.54074 0.55766,-8.68793 0.28145,-0.25812 8.74759,-4.93149 11.43965,-6.31478 l 1.92142,-0.9873 v 21.81193 21.81193 h -6.73575 -6.73575 z"
       id="path10"
       transform="scale(0.26458333)" /><path
       style="fill:#9ac8ea;fill-opacity:1;stroke:#000000;stroke-width:0.0104443;stroke-dasharray:none;stroke-opacity:1"
       d="m 359.0226,357.40501 c -0.0363,-7.44495 -0.0404,-15.63472 -0.009,-18.19948 0.0566,-4.6331 0.0581,-4.66405 0.24142,-4.79275 0.79861,-0.56073 13.9634,-7.85838 14.17632,-7.85838 0.0316,0 0.0575,9.98705 0.0575,22.19344 v 22.19344 h -7.20008 -7.20009 z m 14.20711,-8.44128 c 0,-14.12609 -0.0298,-21.89119 -0.084,-21.89119 -0.10663,0 -3.94981,1.99319 -5.65866,2.93476 -4.88955,2.69412 -7.90168,4.4339 -7.90301,4.56471 -8e-4,0.0787 -0.0788,1.25053 -0.17329,2.60416 -0.41213,5.90262 -0.41155,12.85929 0.002,26.98618 0.0932,3.18221 0.17015,5.98985 0.17098,6.2392 l 0.002,0.45337 h 6.82211 6.82211 z"
       id="path11"
       transform="scale(0.26458333)" /><path
       style="fill:#9ac8ea;fill-opacity:1;stroke:#000000;stroke-width:0.0104443;stroke-dasharray:none;stroke-opacity:1"
       d="m 385.631,370.80468 c -0.067,-0.17472 -0.0455,-51.5337 0.0245,-58.2278 l 0.0527,-5.03969 4.36096,-2.63247 c 8.2661,-4.98978 15.77591,-9.4384 15.93316,-9.4384 0.0235,0 0.0427,16.98187 0.0427,37.73748 v 37.73748 h -10.18075 c -9.20384,0 -10.18577,-0.0131 -10.23316,-0.1366 z m 20.2197,-37.40658 c 0.0119,-20.5775 -0.004,-37.41364 -0.036,-37.41364 -0.11269,0 -1.99378,1.02734 -3.48306,1.90225 -2.09602,1.23134 -9.12794,5.40822 -13.16926,7.82239 l -3.36788,2.01187 -0.0217,31.56733 -0.0217,31.56734 10.03898,-0.022 10.03898,-0.022 z"
       id="path12"
       transform="scale(0.26458333)" /><path
       style="fill:#9ac8ea;fill-opacity:1;stroke:#000000;stroke-width:0.0104443;stroke-dasharray:none;stroke-opacity:1"
       d="m 418.17733,344.99136 c 0,-14.2962 0.01,-20.1575 0.0222,-13.02511 0.0122,7.13238 0.0122,18.82927 0,25.99309 -0.0122,7.16381 -0.0222,1.32822 -0.0222,-12.96798 z"
       id="path13"
       transform="scale(0.26458333)" /><path
       style="fill:#9ac8ea;fill-opacity:1;stroke:#000000;stroke-width:0.0104443;stroke-dasharray:none;stroke-opacity:1"
       d="m 419.71071,370.96301 -1.48964,-0.0258 v -25.94787 -25.94788 l 0.71244,0.0172 0.71243,0.0172 -0.62608,0.0298 -0.62608,0.0298 v 25.85978 25.85977 h 7.38342 7.38342 V 344.99145 319.1279 l -6.10967,-0.0189 c -3.36032,-0.0104 -5.58506,-0.0277 -4.94387,-0.0386 4.02484,-0.0681 9.9039,-0.21107 10.47064,-0.25458 l 0.66926,-0.0514 v 26.07449 26.07448 l -2.73429,0.0571 c -2.57383,0.0538 -7.46085,0.0504 -10.80198,-0.007 z"
       id="path14"
       transform="scale(0.26458333)" /><path
       style="fill:#9ac8ea;fill-opacity:1;stroke:#000000;stroke-width:0.0104443;stroke-dasharray:none;stroke-opacity:1"
       d="m 418.67013,319.1681 c 0.0578,-0.0578 13.64188,-0.0541 13.69971,0.004 0.0233,0.0233 -3.05997,0.0424 -6.85171,0.0424 -3.79173,0 -6.87334,-0.0207 -6.848,-0.0461 z"
       id="path15"
       transform="scale(0.26458333)" /><path
       style="fill:#9ac8ea;fill-opacity:1;stroke:#000000;stroke-width:0.0104443;stroke-dasharray:none;stroke-opacity:1"
       d="m 422.13515,370.79018 c 2.034,-0.0129 5.33711,-0.0129 7.34024,10e-6 2.00313,0.0129 0.33895,0.0235 -3.69819,0.0235 -4.03713,-1e-5 -5.67606,-0.0106 -3.64205,-0.0235 z"
       id="path16"
       transform="scale(0.26458333)" /><path
       style="fill:#9ac8ea;fill-opacity:1;stroke:#000000;stroke-width:0.0104443;stroke-dasharray:none;stroke-opacity:1"
       d="m 425.45337,370.79169 c 0.20185,-0.0182 0.53217,-0.0182 0.73402,0 0.20186,0.0182 0.0367,0.0331 -0.36701,0.0331 -0.40371,0 -0.56887,-0.0149 -0.36701,-0.0331 z"
       id="path17"
       transform="scale(0.26458333)" /><path
       style="fill:#9ac8ea;fill-opacity:1;stroke:#000000;stroke-width:0.0104443;stroke-dasharray:none;stroke-opacity:1"
       d="m 422.13515,370.70382 c 2.034,-0.0129 5.33711,-0.0129 7.34024,10e-6 2.00313,0.0129 0.33895,0.0235 -3.69819,0.0235 -4.03713,0 -5.67606,-0.0106 -3.64205,-0.0235 z"
       id="path18"
       transform="scale(0.26458333)" /><path
       style="fill:#9ac8ea;fill-opacity:1;stroke:#000000;stroke-width:0.0104443;stroke-dasharray:none;stroke-opacity:1"
       d="m 405.87219,333.41033 v -37.4446 l -0.21021,0.0528 c -0.11562,0.029 -0.84378,0.40604 -1.61815,0.83783 -1.48185,0.82627 -2.37053,1.34934 -9.85466,5.80037 -2.55476,1.51939 -4.66347,2.74409 -4.68601,2.72154 -0.0566,-0.0566 13.39856,-8.11541 15.95884,-9.55838 l 0.49655,-0.27985 v 37.65746 c 0,20.7116 -0.0194,37.65746 -0.0432,37.65746 -0.0238,0 -0.0432,-16.85007 -0.0432,-37.44459 z"
       id="path19"
       transform="scale(0.26458333)" /><path
       style="fill:#9ac8ea;fill-opacity:1;stroke:#000000;stroke-width:0.0104443;stroke-dasharray:none;stroke-opacity:1"
       d="m 385.60534,308.54922 c 4.9e-4,-0.28497 0.0166,-0.39114 0.0358,-0.23593 0.0192,0.15521 0.0188,0.38837 -8.8e-4,0.51814 -0.0197,0.12976 -0.0354,0.003 -0.0349,-0.28221 z"
       id="path20"
       transform="scale(0.26458333)" /><path
       style="fill:#9ac8ea;fill-opacity:1;stroke:#000000;stroke-width:0.0104443;stroke-dasharray:none;stroke-opacity:1"
       d="m 385.73443,314.31347 c -0.0145,-2.60039 -0.004,-5.13601 0.0228,-5.63471 0.027,-0.49871 0.0562,1.62888 0.0648,4.72798 0.009,3.09909 -0.002,5.63471 -0.0228,5.63471 -0.0211,0 -0.0503,-2.12759 -0.0648,-4.72798 z"
       id="path21"
       transform="scale(0.26458333)" /><path
       style="fill:#9ac8ea;fill-opacity:1;stroke:#000000;stroke-width:0.0104443;stroke-dasharray:none;stroke-opacity:1"
       d="m 385.81637,340.00432 c -0.012,-13.16818 -0.002,-25.80743 0.0225,-28.08722 0.0244,-2.27979 0.0536,8.49417 0.0648,23.94214 0.0112,15.44797 0.001,28.08722 -0.0226,28.08722 -0.0236,0 -0.0527,-10.77396 -0.0648,-23.94214 z"
       id="path22"
       transform="scale(0.26458333)" /><path
       style="fill:#9ac8ea;fill-opacity:1;stroke:#000000;stroke-width:0.0104443;stroke-dasharray:none;stroke-opacity:1"
       d="m 385.60534,309.93092 c 4.9e-4,-0.28498 0.0166,-0.39115 0.0358,-0.23594 0.0192,0.15522 0.0188,0.38838 -8.8e-4,0.51814 -0.0197,0.12976 -0.0354,0.003 -0.0349,-0.2822 z"
       id="path23"
       transform="scale(0.26458333)" /><path
       style="fill:#9ac8ea;fill-opacity:1;stroke:#000000;stroke-width:0.0104443;stroke-dasharray:none;stroke-opacity:1"
       d="m 387.43015,306.56029 c 0.0922,-0.0697 0.20877,-0.12555 0.25907,-0.12404 0.0503,0.002 0.016,0.0598 -0.0762,0.12954 -0.0922,0.0697 -0.20878,0.12555 -0.25907,0.12404 -0.0503,-0.002 -0.016,-0.0598 0.0762,-0.12954 z"
       id="path24"
       transform="scale(0.26458333)" /><path
       style="fill:#9ac8ea;fill-opacity:1;stroke:#000000;stroke-width:0.0104443;stroke-dasharray:none;stroke-opacity:1"
       d="m 385.68846,308.24698 c 0,-0.21373 0.0168,-0.30117 0.0374,-0.1943 0.0206,0.10686 0.0206,0.28173 0,0.3886 -0.0206,0.10686 -0.0374,0.0194 -0.0374,-0.1943 z"
       id="path25"
       transform="scale(0.26458333)" /><path
       style="fill:#9ac8ea;fill-opacity:1;stroke:#000000;stroke-width:0.0104443;stroke-dasharray:none;stroke-opacity:1"
       d="m 385.96672,339.20553 c 0,-17.28843 0.01,-24.3481 0.022,-15.68815 0.0121,8.65995 0.0121,22.80503 0,31.43351 -0.0121,8.62848 -0.022,1.54307 -0.022,-15.74536 z"
       id="path26"
       transform="scale(0.26458333)" /></g></g></svg>
